<svg width="48" height="48" viewBox="0 0 48 48" fill="none" xmlns="http://www.w3.org/2000/svg">
  <path fill-rule="evenodd" clip-rule="evenodd" d="M15.041 8.292a7.359 7.359 0 0 1 4.188-1.735 7.359 7.359 0 0 1 9.542 0 7.359 7.359 0 0 1 4.188 1.735 7.359 7.359 0 0 1 6.749 6.749c.123 1.542.73 3.01 1.735 4.188a7.359 7.359 0 0 1 0 9.542 7.358 7.358 0 0 1-1.735 4.188 7.359 7.359 0 0 1-6.749 6.749 7.358 7.358 0 0 1-4.188 1.735 7.359 7.359 0 0 1-9.542 0 7.359 7.359 0 0 1-4.188-1.735 7.359 7.359 0 0 1-6.749-6.749 7.359 7.359 0 0 1-1.735-4.188 7.359 7.359 0 0 1 0-9.542 7.359 7.359 0 0 1 1.735-4.188 7.359 7.359 0 0 1 6.749-6.749zM32.856 21.6a2.4 2.4 0 0 0-3.394-3.394L21.6 26.067l-3.063-3.063a2.4 2.4 0 0 0-3.394 3.393l4.8 4.8a2.4 2.4 0 0 0 3.394 0l9.6-9.6z" fill="#4A56E2"/>
</svg>
