<svg width="16" height="16" viewBox="0 0 16 16" fill="none" xmlns="http://www.w3.org/2000/svg">
  <path fill-rule="evenodd" clip-rule="evenodd" d="M5.014 2.764a2.453 2.453 0 0 1 1.396-.578 2.453 2.453 0 0 1 3.18 0 2.453 2.453 0 0 1 1.396.578 2.453 2.453 0 0 1 2.25 2.25c.041.514.243 1.003.578 1.396a2.453 2.453 0 0 1 0 3.18 2.452 2.452 0 0 1-.578 1.396 2.453 2.453 0 0 1-2.25 2.25 2.452 2.452 0 0 1-1.396.578 2.453 2.453 0 0 1-3.18 0 2.453 2.453 0 0 1-1.396-.578 2.453 2.453 0 0 1-2.25-2.25 2.453 2.453 0 0 1-.578-1.396 2.453 2.453 0 0 1 0-3.18 2.453 2.453 0 0 1 .578-1.396 2.453 2.453 0 0 1 2.25-2.25zM10.952 7.2a.8.8 0 0 0-1.131-1.131L7.2 8.688l-1.021-1.02a.8.8 0 0 0-1.131 1.13l1.6 1.6a.8.8 0 0 0 1.131 0l3.2-3.2z" fill="#4A56E2"/>
</svg>
