<svg width="128" height="128" viewBox="0 0 128 128" fill="none" xmlns="http://www.w3.org/2000/svg">
  <path fill-rule="evenodd" clip-rule="evenodd" d="M40.11 22.115a19.622 19.622 0 0 1 11.168-4.626c5.121-5.61 13.322-5.61 18.444 0 5.121 0 9.989 1.542 11.168 4.626 13.322 4.626 17.897 9.252 17.897 17.995.328 4.113 1.945 8.026 4.627 11.168 5.121 5.61 5.121 13.37 0 18.979a19.619 19.619 0 0 1-4.627 11.168c-4.626 13.37-9.252 17.995-17.897 17.995-4.113.328-8.026 1.945-11.168 4.627-5.121 5.61-13.322 5.61-18.444 0-5.121 0-9.989-1.542-11.168-4.627-13.322-4.626-17.897-9.252-17.897-17.995-.328-4.113-1.945-8.026-4.627-11.168-5.121-5.61-5.121-13.37 0-18.979 0-5.121 1.542-9.989 4.627-11.168 4.626-13.37 9.252-17.995 17.897-17.995zM87.616 57.6c4.885-4.885-2.442-12.213-7.327-7.328L57.6 69.512l-8.168-8.169c-4.885-4.885-12.213 2.442-7.328 7.327l12.8 12.8c2.031 2.031 5.297 2.031 7.328 0l25.6-25.6z" fill="#4A56E2"/>
</svg>
